:version 1.10
:name ASF
:units
  mass 1
  length 1
  angle deg
:documentation
  ASF file generated by Kaydara
:root
  axis xyz
  order  tx ty tz rx ry rz
  position 0 0 0
  orientation 0 0 0
:bonedata
  begin
    id 1
    name RightUpLegDummy
    direction -0.718183 -0.695806 0.00816078
    length 4.904
    axis 0 0 0 xyz
  end
  begin
    id 2
    name RightUpLeg
    direction 3.53989e-006 -0.995788 0.0916897
    length 17.4976
    axis -3.49089 -0.000906621 0.000287158 xyz
    dof rx ry rz
  end
  begin
    id 3
    name RightLeg
    direction 0.00371093 -0.995096 -0.0988418
    length 16.5821
    axis 3.68512 0.0193738 -0.131023 xyz
    dof rx ry rz
  end
  begin
    id 4
    name RightFoot
    direction 0.000791514 -0.46099 0.887405
    length 3.77069
    axis 4.84075e-005 -0.120479 -0.188788 xyz
    dof rx ry rz
  end
  begin
    id 5
    name RightToes
    direction 0.00124746 -0.014064 0.9999
    length 3.85082
    axis 0.00048216 0.542163 -0.142577 xyz
    dof rx ry rz
  end
  begin
    id 6
    name SpineDummy
    direction 8.36599e-015 1 5.97571e-016
    length 4.6813
    axis 0 0 0 xyz
  end
  begin
    id 7
    name Spine
    direction -4.63632e-008 0.999988 0.00495137
    length 10.1015
    axis -0.00138897 0.000121419 3.25764e-006 xyz
    dof rx ry rz
  end
  begin
    id 8
    name Spine1
    direction 0 0 0
    length 0
    axis -0.00138896 0.000121452 2.39764e-006 xyz
    dof rx ry rz
  end
  begin
    id 9
    name HEadDummy
    direction -3.91456e-008 0.999999 0.00127422
    length 3.43865
    axis -0.00138896 0.000121452 2.39764e-006 xyz
  end
  begin
    id 10
    name HEad
    direction -0.0222688 0.980941 0.193023
    length 5.12695
    axis -0.00138895 0.000121452 2.39764e-006 xyz
    dof rx ry rz
  end
  begin
    id 11
    name LeftShoulder1Dummy
    direction 0.998891 -0.0402508 -0.0244456
    length 3.5433
    axis -0.00138896 0.000121452 2.39764e-006 xyz
  end
  begin
    id 12
    name LeftShoulder1
    direction 0.99951 -0.000327743 0.0313091
    length 4.05031
    axis -0.00138896 0.000121452 2.39764e-006 xyz
    dof rx ry rz
  end
  begin
    id 13
    name LeftArm
    direction 0.998561 -0.00100054 -0.0536182
    length 10.3537
    axis -23.1894 0.134784 0.96751 xyz
    dof rx ry rz
  end
  begin
    id 14
    name LeftForeArm
    direction 0.998903 0.00866434 0.046012
    length 8.70632
    axis -9.91835 -0.06569 -0.177792 xyz
    dof rx ry rz
  end
  begin
    id 15
    name LeftHand
    direction 0.992938 -0.0411636 0.11126
    length 5.32135
    axis -0.00960227 -0.00340091 0.185174 xyz
    dof rx ry rz
  end
  begin
    id 16
    name RightShoulderDummy
    direction -0.998891 -0.0402509 -0.0244414
    length 3.5433
    axis -0.00138896 0.000121452 2.39764e-006 xyz
  end
  begin
    id 17
    name RightShoulder
    direction -0.99951 -0.000327827 0.0313133
    length 4.05031
    axis 0.215806 0.000203644 -0.00680151 xyz
    dof rx ry rz
  end
  begin
    id 18
    name RightArm
    direction -0.998573 -0.000999583 -0.053403
    length 10.3947
    axis -23.2009 -0.134239 -0.9641 xyz
    dof rx ry rz
  end
  begin
    id 19
    name RightForeArm
    direction -0.998898 0.00868026 0.0461306
    length 8.68355
    axis -9.92322 0.0658061 0.178869 xyz
    dof rx ry rz
  end
  begin
    id 20
    name RightHand
    direction -0.992843 -0.0414603 0.112003
    length 5.28593
    axis -0.00960634 0.00330671 -0.185226 xyz
    dof rx ry rz
  end
  begin
    id 21
    name LeftUpLegDummy
    direction 0.718183 -0.695806 0.00816078
    length 4.904
    axis 0 0 0 xyz
  end
  begin
    id 22
    name LeftUpLeg
    direction -6.8115e-006 -0.995793 0.0916336
    length 17.4976
    axis -3.48766 0.00143441 -0.000523914 xyz
    dof rx ry rz
  end
  begin
    id 23
    name LeftLeg
    direction -0.00601357 -0.995091 -0.0987824
    length 16.5821
    axis 3.68177 -0.00654038 -0.00028478 xyz
    dof rx ry rz
  end
  begin
    id 24
    name LeftFoot
    direction -0.00417578 -0.460984 0.887399
    length 3.77069
    axis 1.87232e-006 4.66002e-005 -8.1837e-006 xyz
    dof rx ry rz
  end
  begin
    id 25
    name LeftToes
    direction 0.00818058 -0.00485161 0.999955
    length 3.85048
    axis 1.06246e-005 4.65855e-005 -8.18502e-006 xyz
    dof rx ry rz
  end
:hierarchy
  begin
    root RightUpLegDummy SpineDummy LeftUpLegDummy
    RightUpLegDummy RightUpLeg
    RightUpLeg RightLeg
    RightLeg RightFoot
    RightFoot RightToes
    SpineDummy Spine
    Spine Spine1
    Spine1 HEadDummy LeftShoulder1Dummy RightShoulderDummy
    HEadDummy HEad
    LeftShoulder1Dummy LeftShoulder1
    LeftShoulder1 LeftArm
    LeftArm LeftForeArm
    LeftForeArm LeftHand
    RightShoulderDummy RightShoulder
    RightShoulder RightArm
    RightArm RightForeArm
    RightForeArm RightHand
    LeftUpLegDummy LeftUpLeg
    LeftUpLeg LeftLeg
    LeftLeg LeftFoot
    LeftFoot LeftToes
  end

:SAMPLES-PER-SECOND 30
:FULLY-SPECIFIED
:DEGREES
16
root  2.7144 39.7943 -0.742803 41.106 -83.0028 -45.2823
RightUpLeg  -0.236101 -1.89768 8.9949
RightLeg  7.75491 -14.2091 -1.60808
RightFoot  -2.95022 -0.142082 1.65639
RightToes  5.82063e-011 0 -3.6325e-017
Spine  4.55234 -2.31656 2.81902
Spine1  5.66465 -3.10939 4.37524
HEad  3.8096 -11.7657 -3.18606
LeftShoulder1  2.79078 -6.59562 -21.2694
LeftArm  6.96037 5.44948 -53.8584
LeftForeArm  9.18768 -7.02001 -14.817
LeftHand  -0.44001 1.19423 12.1421
RightShoulder  1.71865 3.25093 19.0106
RightArm  -3.45235 -0.945303 56.2076
RightForeArm  26.8898 -0.296467 15.4286
RightHand  -0.107521 -4.70623 -16.1427
LeftUpLeg  -7.1367 -4.2847 9.89168
LeftLeg  20.196 5.6787 2.6325
LeftFoot  -8.11323 0.319543 -9.60167
LeftToes  3.99265e-010 -1.33173e-010 6.75004e-011
17
root  2.73444 39.7989 -0.71563 41.1093 -82.9962 -45.2631
RightUpLeg  -0.268244 -1.89126 8.95803
RightLeg  7.7047 -14.2129 -1.60912
RightFoot  -2.88385 -0.143991 1.68601
RightToes  5.82063e-011 0 -3.6325e-017
Spine  4.66592 -2.3016 3.01474
Spine1  5.4662 -3.04144 4.18419
HEad  3.76253 -11.869 -3.22763
LeftShoulder1  2.79413 -6.66539 -21.1024
LeftArm  6.52807 5.39026 -53.7358
LeftForeArm  9.44202 -6.73077 -14.8833
LeftHand  -0.410019 1.53021 12.255
RightShoulder  1.74706 3.33837 19.1075
RightArm  -3.50798 -1.002 56.1348
RightForeArm  27.3348 -0.633281 15.4589
RightHand  -0.12678 -4.55088 -15.8435
LeftUpLeg  -7.17862 -4.31545 9.84551
LeftLeg  20.173 5.71822 2.64586
LeftFoot  -8.07313 0.32079 -9.53605
LeftToes  3.99265e-010 -1.33173e-010 6.75004e-011
18
root  2.74922 39.8047 -0.683136 40.8975 -83.0044 -44.9788
RightUpLeg  -0.34911 -1.91623 8.86561
RightLeg  7.67308 -14.1779 -1.59705
RightFoot  -2.84569 -0.149438 1.77051
RightToes  5.82063e-011 0 -3.6325e-017
Spine  4.66756 -2.32343 3.23002
Spine1  5.31539 -3.00332 3.94206
HEad  3.75252 -11.9036 -3.28833
LeftShoulder1  2.79465 -6.70927 -20.9819
LeftArm  4.94511 5.35167 -53.531
LeftForeArm  10.1268 -6.14108 -14.918
LeftHand  -0.398986 1.60727 12.1596
RightShoulder  1.76532 3.41409 19.0911
RightArm  -3.58481 -1.05452 56.1803
RightForeArm  27.5851 -0.889098 15.4806
RightHand  -0.145822 -4.38919 -15.5058
LeftUpLeg  -7.25553 -4.36886 9.75613
LeftLeg  20.1346 5.77389 2.66383
LeftFoot  -8.03573 0.321824 -9.47003
LeftToes  3.99265e-010 -1.33173e-010 6.75004e-011
19
root  2.75785 39.8093 -0.647262 40.7518 -83.0293 -44.7675
RightUpLeg  -0.425043 -1.9437 8.76869
RightLeg  7.67381 -14.112 -1.6045
RightFoot  -2.83124 -0.155811 1.86939
RightToes  5.82063e-011 0 -3.6325e-017
Spine  4.57008 -2.33286 3.46353
Spine1  5.27293 -2.96244 3.73196
HEad  3.79225 -11.9119 -3.38817
LeftShoulder1  2.80612 -6.74267 -21.0063
LeftArm  2.83743 5.23275 -53.1917
LeftForeArm  11.0368 -5.37978 -14.9116
LeftHand  -0.41837 1.39352 12.0921
RightShoulder  1.76433 3.44062 18.9583
RightArm  -3.65679 -1.08368 56.26
RightForeArm  27.6119 -0.984923 15.4836
RightHand  -0.146958 -4.37105 -15.3554
LeftUpLeg  -7.31122 -4.37762 9.65801
LeftLeg  20.0968 5.81429 2.67557
LeftFoot  -8.01068 0.321953 -9.41722
LeftToes  3.99265e-010 -1.33173e-010 6.75004e-011
20
root  2.76023 39.813 -0.613135 40.8127 -83.068 -44.8398
RightUpLeg  -0.407074 -1.95259 8.71027
RightLeg  7.66949 -14.0518 -1.64201
RightFoot  -2.81786 -0.159147 1.92116
RightToes  5.82063e-011 0 -3.6325e-017
Spine  4.51522 -2.30446 3.67389
Spine1  5.23255 -2.89676 3.59856
HEad  3.94582 -11.9391 -3.553
LeftShoulder1  2.81396 -6.74105 -21.0926
LeftArm  1.50167 5.09293 -52.8598
LeftForeArm  11.488 -4.90492 -14.8756
LeftHand  -0.434525 1.33002 12.3775
RightShoulder  1.75644 3.44417 18.8069
RightArm  -3.60056 -1.18318 56.2673
RightForeArm  27.5997 -0.8332 15.4735
RightHand  -0.135017 -4.46029 -15.3047
LeftUpLeg  -7.27305 -4.33526 9.57836
LeftLeg  20.0669 5.83144 2.67887
LeftFoot  -8.00309 0.321656 -9.38507
LeftToes  3.99265e-010 -1.33173e-010 6.75004e-011
21
root  2.76028 39.8171 -0.58166 40.9455 -83.1097 -45.0448
RightUpLeg  -0.310734 -1.96028 8.66628
RightLeg  7.64302 -13.9998 -1.67309
RightFoot  -2.80427 -0.160406 1.9407
RightToes  5.82063e-011 0 -3.6325e-017
Spine  4.59022 -2.2695 3.80337
Spine1  5.05497 -2.84293 3.57019
HEad  4.23643 -11.9363 -3.80454
LeftShoulder1  2.7989 -6.68223 -21.1039
LeftArm  1.26057 5.04515 -52.6851
LeftForeArm  11.3364 -4.87915 -14.8484
LeftHand  -0.427462 1.4867 12.6449
RightShoulder  1.75368 3.47823 18.6583
RightArm  -3.50225 -1.36388 56.2233
RightForeArm  27.6863 -0.597799 15.4572
RightHand  -0.120068 -4.57683 -15.3249
LeftUpLeg  -7.16702 -4.31723 9.50711
LeftLeg  20.0471 5.86654 2.69062
LeftFoot  -8.00543 0.321487 -9.36133
LeftToes  3.99265e-010 -1.33173e-010 6.75004e-011
22
root  2.7612 39.8211 -0.549482 40.9637 -83.1432 -45.1293
RightUpLeg  -0.233211 -2.00035 8.58767
RightLeg  7.642 -13.918 -1.66239
RightFoot  -2.81355 -0.162742 1.97694
RightToes  5.82063e-011 0 -3.6325e-017
Spine  4.7268 -2.26188 3.85895
Spine1  4.76491 -2.83575 3.63023
HEad  4.58198 -11.8575 -4.08684
LeftShoulder1  2.76954 -6.61242 -20.9964
LeftArm  1.57501 5.107 -52.6659
LeftForeArm  10.9615 -5.10069 -14.8313
LeftHand  -0.417287 1.5007 12.3866
RightShoulder  1.76187 3.54971 18.5043
RightArm  -3.61128 -1.49817 56.1624
RightForeArm  27.8182 -0.535236 15.43
RightHand  -0.10901 -4.67206 -15.5523
LeftUpLeg  -7.07047 -4.35809 9.42308
LeftLeg  20.0289 5.94147 2.71854
LeftFoot  -8.00664 0.320526 -9.33102
LeftToes  3.99265e-010 -1.33173e-010 6.75004e-011
23
root  2.76018 39.8233 -0.517117 40.8384 -83.1509 -45.0389
RightUpLeg  -0.208811 -2.07133 8.48692
RightLeg  7.68963 -13.8183 -1.62133
RightFoot  -2.84947 -0.166087 2.02884
RightToes  5.82063e-011 0 -3.6325e-017
Spine  4.80903 -2.26733 3.88675
Spine1  4.51279 -2.85626 3.74255
HEad  4.86552 -11.7722 -4.2769
LeftShoulder1  2.75353 -6.60913 -20.8371
LeftArm  2.21111 5.20105 -52.7181
LeftForeArm  10.5707 -5.4051 -14.8288
LeftHand  -0.417372 1.36087 11.9686
RightShoulder  1.77018 3.60954 18.4026
RightArm  -3.98092 -1.50561 56.0303
RightForeArm  27.9368 -0.654533 15.3814
RightHand  -0.107232 -4.69638 -15.8276
LeftUpLeg  -7.01485 -4.39924 9.34282
LeftLeg  20.0129 6.00027 2.74019
LeftFoot  -8.00897 0.318537 -9.28987
LeftToes  3.99265e-010 -1.33173e-010 6.75004e-011
24
root  2.75263 39.823 -0.490507 40.6794 -83.1045 -44.9118
RightUpLeg  -0.168468 -2.12523 8.44018
RightLeg  7.71356 -13.7926 -1.58888
RightFoot  -2.87775 -0.168501 2.06629
RightToes  5.82063e-011 0 -3.6325e-017
Spine  4.80438 -2.25774 3.88798
Spine1  4.4013 -2.88182 3.92361
HEad  5.00627 -11.768 -4.31862
LeftShoulder1  2.76288 -6.68031 -20.7317
LeftArm  3.27056 5.26045 -52.7905
LeftForeArm  10.0013 -5.79201 -14.8456
LeftHand  -0.41049 1.4555 12.0484
RightShoulder  1.77092 3.62046 18.3724
RightArm  -4.38849 -1.43844 55.8158
RightForeArm  28.0954 -0.765481 15.3165
RightHand  -0.112783 -4.65085 -15.7289
LeftUpLeg  -6.98596 -4.38502 9.31833
LeftLeg  20.0312 5.96343 2.72764
LeftFoot  -8.03138 0.315851 -9.24254
LeftToes  3.99265e-010 -1.33173e-010 6.75004e-011
25
root  2.73968 39.8219 -0.471469 40.5738 -82.9987 -44.8633
RightUpLeg  -0.0569216 -2.12745 8.48427
RightLeg  7.65619 -13.8885 -1.58609
RightFoot  -2.87493 -0.169925 2.08839
RightToes  5.82063e-011 0 -3.6325e-017
Spine  4.75352 -2.24416 3.8498
Spine1  4.43779 -2.92806 4.18513
HEad  4.94391 -11.801 -4.27422
LeftShoulder1  2.78417 -6.75761 -20.7351
LeftArm  4.37892 5.2829 -52.8642
LeftForeArm  9.2385 -6.19896 -14.8537
LeftHand  -0.3866 1.82668 12.4796
RightShoulder  1.76349 3.60193 18.3294
RightArm  -4.62379 -1.34382 55.6229
RightForeArm  28.2463 -0.77396 15.2635
RightHand  -0.114453 -4.6179 -15.2665
LeftUpLeg  -6.9656 -4.33947 9.36689
LeftLeg  20.1113 5.83235 2.68464
LeftFoot  -8.0867 0.313122 -9.19879
LeftToes  3.99265e-010 -1.33173e-010 6.75004e-011
26
root  2.72743 39.82 -0.453665 40.475 -82.873 -44.841
RightUpLeg  0.0788572 -2.10501 8.55928
RightLeg  7.5866 -14.0263 -1.60394
RightFoot  -2.86686 -0.171454 2.1121
RightToes  5.82063e-011 0 -3.6325e-017
Spine  4.69183 -2.25525 3.81811
Spine1  4.58865 -3.00251 4.43355
HEad  4.66336 -11.7749 -4.21737
LeftShoulder1  2.79946 -6.78927 -20.8046
LeftArm  4.89634 5.29639 -52.9301
LeftForeArm  8.66448 -6.46701 -14.8311
LeftHand  -0.368297 2.07864 12.7553
RightShoulder  1.75387 3.58652 18.2408
RightArm  -4.62938 -1.19047 55.5108
RightForeArm  28.1411 -0.717553 15.2493
RightHand  -0.111121 -4.62948 -14.9585
LeftUpLeg  -6.94341 -4.32133 9.43427
LeftLeg  20.2249 5.69408 2.64228
LeftFoot  -8.15644 0.310748 -9.16436
LeftToes  3.99265e-010 -1.33173e-010 6.75004e-011
27
root  2.71943 39.8175 -0.432571 40.2882 -82.7689 -44.7175
RightUpLeg  0.157268 -2.10015 8.5934
RightLeg  7.59256 -14.1143 -1.62522
RightFoot  -2.88417 -0.173318 2.14102
RightToes  5.82063e-011 0 -3.6325e-017
Spine  4.62166 -2.28279 3.83744
Spine1  4.79701 -3.07121 4.5709
HEad  4.26985 -11.721 -4.1571
LeftShoulder1  2.80396 -6.78704 -20.8605
LeftArm  4.82612 5.31167 -53.0106
LeftForeArm  8.54265 -6.55695 -14.7923
LeftHand  -0.3747 2.04931 12.8724
RightShoulder  1.74474 3.56356 18.188
RightArm  -4.37739 -0.976728 55.424
RightForeArm  27.6689 -0.609994 15.2835
RightHand  -0.112793 -4.62178 -15.0699
LeftUpLeg  -6.92621 -4.35197 9.46223
LeftLeg  20.3159 5.61756 2.6218
LeftFoot  -8.20601 0.308331 -9.13241
LeftToes  3.99265e-010 -1.33173e-010 6.75004e-011
28
root  2.71381 39.8153 -0.412304 40.0241 -82.689 -44.4652
RightUpLeg  0.157215 -2.1062 8.59099
RightLeg  7.63851 -14.1664 -1.64183
RightFoot  -2.909 -0.175168 2.16973
RightToes  5.82063e-011 0 -3.6325e-017
Spine  4.52578 -2.29052 3.86135
Spine1  4.992 -3.10712 4.64967
HEad  3.93396 -11.7593 -4.10191
LeftShoulder1  2.80613 -6.78198 -20.9029
LeftArm  4.64158 5.31789 -53.1223
LeftForeArm  8.69869 -6.55132 -14.7662
LeftHand  -0.38832 1.93752 12.9282
RightShoulder  1.73127 3.50738 18.1947
RightArm  -3.84355 -0.784975 55.3492
RightForeArm  27.0795 -0.440993 15.3598
RightHand  -0.119043 -4.58525 -15.3336
LeftUpLeg  -6.94603 -4.40931 9.45548
LeftLeg  20.3647 5.595 2.61819
LeftFoot  -8.224 0.305576 -9.09778
LeftToes  3.99265e-010 -1.33173e-010 6.75004e-011
29
root  2.70756 39.8155 -0.397556 39.7797 -82.6308 -44.1695
RightUpLeg  0.107939 -2.09833 8.58321
RightLeg  7.64782 -14.224 -1.65307
RightFoot  -2.90835 -0.176219 2.18603
RightToes  5.82063e-011 0 -3.6325e-017
Spine  4.39385 -2.26925 3.82646
Spine1  5.13647 -3.12335 4.76457
HEad  3.72602 -11.8946 -4.09854
LeftShoulder1  2.8177 -6.78068 -21.0176
LeftArm  4.49736 5.31551 -53.2053
LeftForeArm  8.89214 -6.49258 -14.7653
LeftHand  -0.393464 1.81056 12.6498
RightShoulder  1.71241 3.43737 18.1706
RightArm  -3.1987 -0.680831 55.3704
RightForeArm  26.6631 -0.269267 15.4492
RightHand  -0.118012 -4.60263 -15.5365
LeftUpLeg  -7.01525 -4.46067 9.44035
LeftLeg  20.3809 5.59401 2.61964
LeftFoot  -8.22357 0.303382 -9.07406
LeftToes  3.99265e-010 -1.33173e-010 6.75004e-011
